<svg id="Artwork" xmlns="http://www.w3.org/2000/svg" viewBox="0 0 588.27 116.07"><defs><style>.cls-1,.cls-2{fill:#fff;}.cls-1{fill-rule:evenodd;}</style></defs><title>cengage-mindtap-horizontal-digital-white</title><path class="cls-1" d="M39.79,37.36l10,3.39-1.6,8-13.85-4.7,3.41-5.89A1.55,1.55,0,0,1,39.79,37.36Z"/><path class="cls-1" d="M25.67,62.67,34.39,55,41.15,61,29.05,71.56l-3.74-6.49A1.72,1.72,0,0,1,25.67,62.67Z"/><path class="cls-1" d="M41.31,88.83,38.82,76.31l9.36-3.17,3.46,17.35H43.4A1.89,1.89,0,0,1,41.31,88.83Z"/><path class="cls-1" d="M73.43,88.31,60.13,83.8l2.13-10.66,18.43,6.25-4.53,7.84A2.06,2.06,0,0,1,73.43,88.31Z"/><path class="cls-1" d="M89.89,58.65,78.29,68.84l-9-7.89,16.1-14.12,5,8.63A2.26,2.26,0,0,1,89.89,58.65Z"/><path class="cls-1" d="M71.4,27.87l3.32,16.66L62.26,48.76l-4.61-23.1h11A2.51,2.51,0,0,1,71.4,27.87Z"/><path class="cls-2" d="M131.87,73.52a20.19,20.19,0,0,1-9.59,2.4c-10.15,0-16-6.94-16-16.59s6.7-17.14,16.69-17.14a18.34,18.34,0,0,1,8.3,1.75v4.15A16.73,16.73,0,0,0,123,46c-7.59,0-12.09,5.8-12.09,13.14,0,7.65,4.55,13,11.8,13A16,16,0,0,0,130.62,70Z"/><path class="cls-2" d="M139.41,42.49h16.64l-1.3,3.65H143.86V56.73H154.6v3.7H143.86V71.77h12.39v3.65H139.41Z"/><path class="cls-2" d="M163.59,42.49h4.3l14.89,19.39c1.95,2.5,3.34,4.5,4.44,6.15h.1c-.1-1.8-.1-3.4-.1-5.75V42.49h4.45V75.42h-3.9L172.33,55.28c-1.84-2.39-3.19-4.29-4.34-5.94h-.1c.1,1.55.15,3.15.15,5.49V75.42h-4.45Z"/><path class="cls-2" d="M213.5,62l-1.3-3.65h13.69v15a25.78,25.78,0,0,1-11.14,2.55c-10.15,0-16.59-6.84-16.59-16.44,0-10.09,6.94-17.29,17.39-17.29a24.86,24.86,0,0,1,9.14,1.75v4.15A19.6,19.6,0,0,0,215.8,46c-8.3,0-12.94,5.4-12.94,13.09,0,8,4.74,13,12.34,13a15.33,15.33,0,0,0,6.3-1.2V62Z"/><path class="cls-2" d="M243.47,42.39h3.15l12.79,33h-4.74l-3.25-8.64H238.68l-3.15,8.64h-4.65Zm6.6,20.74-3.1-8.6c-.95-2.79-1.45-4.29-1.85-5.49H245c-.35,1.2-.9,2.75-1.9,5.54L240,63.13Z"/><path class="cls-2" d="M277,62l-1.3-3.65h13.69v15a25.78,25.78,0,0,1-11.14,2.55c-10.15,0-16.59-6.84-16.59-16.44,0-10.09,6.94-17.29,17.39-17.29a24.9,24.9,0,0,1,9.14,1.75v4.15A19.63,19.63,0,0,0,279.3,46c-8.3,0-12.94,5.4-12.94,13.09,0,8,4.74,13,12.34,13a15.28,15.28,0,0,0,6.29-1.2V62Z"/><path class="cls-2" d="M297.38,42.49H314l-1.3,3.65H301.83V56.73h10.74v3.7H301.83V71.77h12.39v3.65H297.38Z"/><path class="cls-2" d="M369.59,42.48h4.1l9,13.39c1.35,2,2.2,3.25,3,4.6h.1c.75-1.3,1.65-2.8,2.89-4.8l8.4-13.19h4.09V75.4h-4.39V55.07c0-1.55,0-3.55.05-5.19h-.05c-.65,1.24-1.75,2.94-2.35,3.89l-7.59,12.09h-2.2l-8.34-12.34A34.31,34.31,0,0,1,374,50h-.1c.1,1.44.1,3.59.1,5V75.4h-4.45Z"/><path class="cls-2" d="M409.56,42.48H414V75.4h-4.45Z"/><path class="cls-2" d="M422.4,42.48h4.29l14.89,19.38c1.95,2.5,3.35,4.5,4.45,6.15h.1c-.1-1.8-.1-3.4-.1-5.75V42.48h4.39V75.4h-3.85L431.14,55.27c-1.85-2.4-3.2-4.3-4.35-5.94h-.1c.1,1.54.15,3.14.15,5.49V75.4H422.4Z"/><path class="cls-2" d="M458.82,42.48h8.64c11.74,0,17.63,6.8,17.63,16.29S479,75.4,467.16,75.4h-8.34Zm8.34,29.27c9.79,0,13.24-6,13.24-13.08,0-7.3-4.25-12.54-13.29-12.54h-3.85V71.75Z"/><path class="cls-2" d="M497.13,46.13h-9.49V42.48H512l-1.25,3.65h-9.14V75.4h-4.45Z"/><path class="cls-2" d="M522.66,42.38h3.2l12.79,33H533.9l-3.25-8.64H517.92l-3.2,8.64h-4.6Zm6.6,20.73-3-8.59c-1-2.8-1.45-4.29-1.85-5.49h-.1c-.35,1.2-.9,2.74-1.9,5.54l-3.09,8.54Z"/><path class="cls-2" d="M543.55,42.48h6.74a14.47,14.47,0,0,1,7.24,1.5c3.1,1.7,5,4.8,5,9a9.62,9.62,0,0,1-5.8,9.29,16.52,16.52,0,0,1-6.79,1.2H548V75.4h-4.44Zm6.64,17.39a9.64,9.64,0,0,0,4.5-.9c2.14-1.1,3.14-3.15,3.14-5.95a6.4,6.4,0,0,0-3-5.84,8.82,8.82,0,0,0-4.64-1H548V59.87Z"/><rect class="cls-2" x="340.61" y="25.65" width="2.5" height="64.8"/></svg>