<svg id="Artwork" xmlns="http://www.w3.org/2000/svg" viewBox="0 0 647.46 116.17"><defs><style>.cls-1,.cls-2{fill:#fff;}.cls-1{fill-rule:evenodd;}</style></defs><title>cengage-webassign-horizontal-digital-white</title><path class="cls-1" d="M40.44,37.35l10,3.39-1.6,8L35,44.06l3.41-5.9A1.56,1.56,0,0,1,40.44,37.35Z"/><path class="cls-1" d="M26.32,62.67,35,55l6.76,5.93L29.7,71.55,26,65.07A1.7,1.7,0,0,1,26.32,62.67Z"/><path class="cls-1" d="M42,88.82l-2.5-12.51,9.36-3.18,3.46,17.36H44.06A1.87,1.87,0,0,1,42,88.82Z"/><path class="cls-1" d="M74.08,88.3l-13.3-4.5,2.13-10.67,18.43,6.25-4.53,7.85A2.06,2.06,0,0,1,74.08,88.3Z"/><path class="cls-1" d="M90.55,58.64,78.94,68.83l-9-7.89L86,46.82l5,8.63A2.27,2.27,0,0,1,90.55,58.64Z"/><path class="cls-1" d="M72.05,27.86l3.32,16.67L62.91,48.75l-4.6-23.1h11A2.51,2.51,0,0,1,72.05,27.86Z"/><path class="cls-2" d="M132.52,73.51a20.16,20.16,0,0,1-9.59,2.4c-10.15,0-16-6.94-16-16.59s6.69-17.14,16.69-17.14a18.29,18.29,0,0,1,8.29,1.75v4.15a16.72,16.72,0,0,0-8.19-2.1c-7.6,0-12.1,5.8-12.1,13.14,0,7.65,4.55,13,11.8,13A16,16,0,0,0,131.27,70Z"/><path class="cls-2" d="M140.06,42.48H156.7l-1.3,3.65H144.51V56.72h10.74v3.7H144.51V71.77H156.9v3.64H140.06Z"/><path class="cls-2" d="M164.24,42.48h4.3l14.89,19.39c1.95,2.5,3.35,4.5,4.45,6.15h.1c-.1-1.8-.1-3.4-.1-5.75V42.48h4.44V75.41h-3.89L173,55.28c-1.85-2.4-3.2-4.3-4.35-6h-.1c.1,1.55.15,3.15.15,5.5V75.41h-4.45Z"/><path class="cls-2" d="M214.15,62l-1.3-3.65h13.69v15a25.9,25.9,0,0,1-11.14,2.54c-10.14,0-16.59-6.84-16.59-16.44,0-10.09,6.95-17.29,17.39-17.29a24.92,24.92,0,0,1,9.15,1.75v4.15a19.64,19.64,0,0,0-8.9-2.1c-8.29,0-12.94,5.4-12.94,13.09,0,8,4.75,13.05,12.34,13.05a15.33,15.33,0,0,0,6.3-1.2V62Z"/><path class="cls-2" d="M244.13,42.38h3.14l12.8,33h-4.75l-3.25-8.64H239.33l-3.15,8.64h-4.65Zm6.59,20.74-3.1-8.59c-1-2.8-1.44-4.3-1.85-5.5h-.1c-.34,1.2-.89,2.75-1.89,5.55l-3.1,8.54Z"/><path class="cls-2" d="M277.65,62l-1.3-3.65H290v15a25.94,25.94,0,0,1-11.14,2.54c-10.14,0-16.59-6.84-16.59-16.44,0-10.09,6.95-17.29,17.39-17.29a24.81,24.81,0,0,1,9.14,1.75v4.15A19.57,19.57,0,0,0,280,46c-8.3,0-12.94,5.4-12.94,13.09,0,8,4.74,13.05,12.34,13.05a15.24,15.24,0,0,0,6.29-1.2V62Z"/><path class="cls-2" d="M574.07,62l-1.3-3.65h13.69v15a25.94,25.94,0,0,1-11.14,2.54c-10.15,0-16.59-6.84-16.59-16.44,0-10.09,6.95-17.29,17.39-17.29a24.86,24.86,0,0,1,9.14,1.75v4.15a19.57,19.57,0,0,0-8.89-2.1c-8.3,0-12.94,5.4-12.94,13.09,0,8,4.74,13.05,12.34,13.05a15.24,15.24,0,0,0,6.29-1.2V62Z"/><path class="cls-2" d="M298,42.48h16.64l-1.3,3.65H302.48V56.72h10.74v3.7H302.48V71.77h12.39v3.64H298Z"/><path class="cls-2" d="M366.7,42.48h5L377.94,62c.65,2,1.4,4.39,2,6.74h.15c.7-2.45,1.35-4.5,2.14-6.69L387,48.12l-2-5.64h4.65L396.22,62c.65,2,1.55,4.44,2.15,6.79h.1c.6-2.45,1.2-4.5,1.9-6.69l6-19.58h4.65L400.12,75.59h-3.65l-5.15-15c-.84-2.45-1.54-4.4-2.14-6.6H389c-.6,2.2-1.25,4-2.15,6.6l-5.25,15H378Z"/><path class="cls-2" d="M415.91,42.48h16.63l-1.3,3.64H420.35V56.71h10.74v3.7H420.35V71.75h12.39v3.64H415.91Z"/><path class="cls-2" d="M439.84,42.48h8.29c7,0,10.14,3.89,10.14,8.34a7.45,7.45,0,0,1-4.25,7V58a8,8,0,0,1,6.35,8c0,5.4-3.9,9.44-11.29,9.44h-9.24Zm7.79,14.28c4,0,6.19-2,6.19-5.34,0-3.05-1.8-5.25-6.09-5.25h-3.45V56.76Zm1.2,14.94c4.29,0,7-1.65,7-5.7,0-3.39-2.55-5.54-6.49-5.54h-5.05V71.7Z"/><path class="cls-2" d="M476.1,42.38h3.2l12.79,33h-4.75l-3.24-8.64H471.36l-3.2,8.64h-4.59Zm6.6,20.73-3.05-8.6c-.95-2.79-1.45-4.29-1.85-5.49h-.1c-.35,1.2-.9,2.75-1.9,5.54l-3.09,8.55Z"/><path class="cls-2" d="M497.19,69.85a12.92,12.92,0,0,0,7.19,2.25c3.3,0,6.29-1.3,6.29-4.85,0-7.44-14.38-6.54-14.38-16.43,0-4.75,3.64-8.64,10-8.64a17.51,17.51,0,0,1,7.44,1.6v4A15.63,15.63,0,0,0,506.43,46c-2.75,0-5.5,1.15-5.5,4.4,0,7,14.44,6.24,14.44,16.53,0,5.6-4.55,9-10.94,9a16.44,16.44,0,0,1-9.09-2.59Z"/><path class="cls-2" d="M522.42,69.85a12.92,12.92,0,0,0,7.19,2.25c3.3,0,6.29-1.3,6.29-4.85,0-7.44-14.38-6.54-14.38-16.43,0-4.75,3.64-8.64,10-8.64a17.55,17.55,0,0,1,7.44,1.6v4A15.63,15.63,0,0,0,531.66,46c-2.75,0-5.5,1.15-5.5,4.4,0,7,14.44,6.24,14.44,16.53,0,5.6-4.55,9-10.94,9a16.42,16.42,0,0,1-9.09-2.59Z"/><path class="cls-2" d="M547.45,42.48h4.44V75.39h-4.44Z"/><path class="cls-2" d="M594.46,42.48h4.29l14.89,19.38c1.94,2.49,3.34,4.49,4.44,6.14h.1c-.1-1.8-.1-3.4-.1-5.74V42.48h4.4V75.39h-3.85L603.2,55.26c-1.85-2.39-3.2-4.29-4.35-5.94h-.1c.1,1.55.15,3.15.15,5.49V75.39h-4.44Z"/><rect class="cls-2" x="341.26" y="25.64" width="2.5" height="64.8"/></svg>