<svg id="Artwork" xmlns="http://www.w3.org/2000/svg" viewBox="0 0 481.98 116.09"><defs><style>.cls-1,.cls-2{fill:#fff;}.cls-1{fill-rule:evenodd;}</style></defs><title>cengage-sam-horizontal-digital-white</title><path class="cls-1" d="M40.43,37.33l10,3.39-1.6,8L35,44l3.41-5.9A1.56,1.56,0,0,1,40.43,37.33Z"/><path class="cls-1" d="M26.31,62.65,35,55l6.76,5.92L29.69,71.53,26,65.05A1.72,1.72,0,0,1,26.31,62.65Z"/><path class="cls-1" d="M42,88.81l-2.5-12.52,9.36-3.18,3.46,17.36H44.05A1.87,1.87,0,0,1,42,88.81Z"/><path class="cls-1" d="M74.07,88.29l-13.3-4.51L62.9,73.11l18.43,6.25L76.8,87.21A2.07,2.07,0,0,1,74.07,88.29Z"/><path class="cls-1" d="M90.54,58.63,78.93,68.81l-9-7.89L86,46.8l5,8.63A2.28,2.28,0,0,1,90.54,58.63Z"/><path class="cls-1" d="M72,27.85l3.32,16.66L62.9,48.73,58.3,25.64h11A2.5,2.5,0,0,1,72,27.85Z"/><path class="cls-2" d="M132.51,73.5a20.19,20.19,0,0,1-9.59,2.4c-10.15,0-16-7-16-16.59s6.69-17.14,16.69-17.14a18.47,18.47,0,0,1,8.29,1.74v4.15a16.72,16.72,0,0,0-8.19-2.1c-7.6,0-12.1,5.8-12.1,13.15,0,7.64,4.55,13,11.8,13A16,16,0,0,0,131.26,70Z"/><path class="cls-2" d="M140.05,42.47h16.64l-1.3,3.64H144.5v10.6h10.74v3.7H144.5V71.75h12.39V75.4H140.05Z"/><path class="cls-2" d="M164.23,42.47h4.3l14.89,19.38c2,2.5,3.35,4.5,4.45,6.15H188c-.09-1.8-.09-3.4-.09-5.75V42.47h4.44V75.4h-3.9L173,55.26c-1.85-2.4-3.2-4.3-4.35-5.95h-.1c.1,1.55.15,3.15.15,5.5V75.4h-4.45Z"/><path class="cls-2" d="M214.14,62l-1.3-3.64h13.69v15a25.78,25.78,0,0,1-11.14,2.55c-10.14,0-16.59-6.85-16.59-16.44,0-10.1,6.95-17.29,17.39-17.29a25.15,25.15,0,0,1,9.15,1.74v4.15a19.64,19.64,0,0,0-8.9-2.1c-8.3,0-12.94,5.4-12.94,13.1,0,8,4.74,13,12.34,13a15.33,15.33,0,0,0,6.3-1.2V62Z"/><path class="cls-2" d="M244.12,42.37h3.14l12.8,33h-4.75l-3.25-8.65H239.32l-3.15,8.65h-4.65Zm6.59,20.73-3.1-8.59c-1-2.8-1.45-4.3-1.85-5.5h-.1c-.35,1.2-.9,2.75-1.89,5.55l-3.1,8.54Z"/><path class="cls-2" d="M277.64,62l-1.3-3.64H290v15a25.78,25.78,0,0,1-11.14,2.55c-10.15,0-16.59-6.85-16.59-16.44,0-10.1,6.94-17.29,17.39-17.29a25.09,25.09,0,0,1,9.14,1.74v4.15a19.57,19.57,0,0,0-8.89-2.1c-8.3,0-12.94,5.4-12.94,13.1,0,8,4.74,13,12.34,13a15.24,15.24,0,0,0,6.29-1.2V62Z"/><path class="cls-2" d="M298,42.47h16.64l-1.3,3.64H302.47v10.6h10.74v3.7H302.47V71.75h12.39V75.4H298Z"/><path class="cls-2" d="M370.44,69.83a12.89,12.89,0,0,0,7.19,2.25c3.29,0,6.29-1.3,6.29-4.85,0-7.44-14.38-6.54-14.38-16.43,0-4.75,3.64-8.64,10-8.64a17.55,17.55,0,0,1,7.44,1.6v4A15.66,15.66,0,0,0,379.68,46c-2.75,0-5.5,1.15-5.5,4.4,0,7,14.44,6.24,14.44,16.53,0,5.6-4.55,9-10.94,9a16.33,16.33,0,0,1-9.09-2.59Z"/><path class="cls-2" d="M404.5,42.36h3.2l12.79,33h-4.75l-3.24-8.64H399.76l-3.2,8.64H392Zm6.6,20.73-3.05-8.59c-.95-2.8-1.45-4.3-1.85-5.5h-.1c-.35,1.2-.9,2.75-1.9,5.55l-3.09,8.54Z"/><path class="cls-2" d="M425.39,42.46h4.09l9,13.38c1.34,2,2.19,3.25,3,4.6h.1c.75-1.3,1.65-2.8,2.9-4.8l8.39-13.18H457V75.37h-4.4V55c0-1.54,0-3.54.05-5.19h-.05c-.65,1.25-1.75,2.95-2.35,3.9l-7.59,12.08h-2.2L432.08,53.5A33.44,33.44,0,0,1,429.83,50h-.1c.1,1.45.1,3.6.1,5V75.37h-4.44Z"/><rect class="cls-2" x="341.25" y="25.62" width="2.5" height="64.8"/></svg>