<?xml version="1.0" encoding="UTF-8"?>
<svg id="Layer_1" xmlns="http://www.w3.org/2000/svg" viewBox="0 70 288 168" width="288px" height="188px">
    <defs>
        <style>.cls-1{fill:#fff;}.cls-2{fill:#FFCC00;}</style>
    </defs>
    <path class="cls-1"
        d="m34.8,156.85c3.14,0,5.54-1.2,5.54-3.51,0-1.75-1.02-2.49-3.32-3.51l-8.96-3.69c-4.99-2.12-8.86-5.45-8.86-12.56,0-8.49,7.48-15.42,18.1-15.42,5.26,0,10.06,1.66,13.48,3.88v12.65c-4.06-2.95-8.96-5.26-13.39-5.26-3.05,0-4.8,1.2-4.8,3.32,0,1.85,1.38,2.68,4.25,3.88l8.22,3.51c5.72,2.31,8.86,5.91,8.86,12.28,0,9.79-9.23,15.51-19.11,15.51-6.19,0-11.91-1.66-16.07-4.34v-13.02c4.34,3.97,10.62,6.28,16.07,6.28Z"/>
    <path class="cls-1"
        d="m112.73,143.1c0,14.13-9.97,24.84-22.81,24.84-6.65,0-11.82-2.95-14.31-6.19v21.9l-14.4,7.69v-72.07h14.4v5.08c2.49-3.14,7.66-6.19,14.31-6.19,12.83,0,22.81,10.71,22.81,24.93Zm-37.49,0c0,7.2,4.99,12.56,11.63,12.56s11.54-5.35,11.54-12.56-5.08-12.56-11.54-12.56-11.63,5.26-11.63,12.56Z"/>
    <path class="cls-1"
        d="m117.35,143.1c0-14.22,9.97-24.93,22.81-24.93,6.65,0,11.73,3.05,14.31,6.19v-5.08h14.4v47.55h-14.4v-5.08c-2.59,3.23-7.66,6.19-14.31,6.19-12.83,0-22.81-10.71-22.81-24.84Zm37.49,0c0-7.29-5.08-12.56-11.63-12.56s-11.54,5.26-11.54,12.56,4.99,12.56,11.54,12.56,11.63-5.35,11.63-12.56Z"/>
    <path class="cls-1"
        d="m209.86,132.94c-8.59-1.11-14.68,2.22-14.68,11.54v22.34h-14.5v-47.55h14.5v6.65c2.77-4.34,7.94-7.76,14.68-7.48v14.5Z"/>
    <path class="cls-1"
        d="m232.74,96.66v40.55c10.15-5.51,12.45-10.21,14.79-17.93h16.8c-.45,8.69-8.72,18.46-18.28,22.16,10.37,6.19,15.58,15.27,18.93,25.39h-16.9c-.68-8.48-4.51-13.8-15.34-20.61v20.61s-14.31,0-14.31,0v-63.64l14.3-6.53Z"/>
    <polygon class="cls-2" points="248.27 115.54 264.99 103 264.99 115.54 248.27 115.54"/>
</svg>
